<?xml version="1.0" encoding="UTF-8" standalone="no"?>
<!DOCTYPE svg PUBLIC "-//W3C//DTD SVG 1.1//EN"
 "http://www.w3.org/Graphics/SVG/1.1/DTD/svg11.dtd">
<!-- Generated by graphviz version 5.0.0 (20220707.1540)
 -->
<!-- Title: StorageDiagram Pages: 1 -->
<svg width="1125pt" height="218pt"
 viewBox="0.00 0.00 1125.37 218.20" xmlns="http://www.w3.org/2000/svg" xmlns:xlink="http://www.w3.org/1999/xlink">
<g id="graph0" class="graph" transform="scale(1 1) rotate(0) translate(4 214.2)">
<title>StorageDiagram</title>
<polygon fill="white" stroke="transparent" points="-4,4 -4,-214.2 1121.37,-214.2 1121.37,4 -4,4"/>
<!-- 3 -->
<g id="node1" class="node">
<title>3</title>
<polygon fill="#f2f2f2" stroke="black" points="0,-77.5 0,-176.7 510.88,-176.7 510.88,-77.5 0,-77.5"/>
<text text-anchor="middle" x="255.44" y="-160.1" font-family="Courier New" font-size="14.00">HexOnePoolManager &lt;&lt;Contract&gt;&gt;</text>
<polyline fill="none" stroke="black" points="0,-151.9 510.88,-151.9 "/>
<text text-anchor="middle" x="24.8" y="-135.3" font-family="Courier New" font-size="14.00">slot</text>
<polyline fill="none" stroke="black" points="0,-127.1 49.61,-127.1 "/>
<text text-anchor="middle" x="24.8" y="-110.5" font-family="Courier New" font-size="14.00">0</text>
<polyline fill="none" stroke="black" points="0,-102.3 49.61,-102.3 "/>
<text text-anchor="middle" x="24.8" y="-85.7" font-family="Courier New" font-size="14.00">1</text>
<polyline fill="none" stroke="black" points="49.61,-77.5 49.61,-151.9 "/>
<text text-anchor="middle" x="280.24" y="-135.3" font-family="Courier New" font-size="14.00">type: &lt;inherited contract&gt;.variable (bytes)</text>
<polyline fill="none" stroke="black" points="49.61,-127.1 510.88,-127.1 "/>
<text text-anchor="middle" x="280.24" y="-110.5" font-family="Courier New" font-size="14.00">mapping(bytes32=&gt;RoleData): AccessControl._roles (32)</text>
<polyline fill="none" stroke="black" points="49.61,-102.3 510.88,-102.3 "/>
<text text-anchor="middle" x="279.82" y="-85.7" font-family="Courier New" font-size="14.00">address[]: pools (32)</text>
</g>
<!-- 1 -->
<g id="node2" class="node">
<title>1</title>
<polygon fill="#f2f2f2" stroke="black" points="639.69,-110.5 639.69,-209.7 1024.55,-209.7 1024.55,-110.5 639.69,-110.5"/>
<text text-anchor="middle" x="832.12" y="-193.1" font-family="Courier New" font-size="14.00">RoleData &lt;&lt;Struct&gt;&gt;</text>
<polyline fill="none" stroke="black" points="639.69,-184.9 1024.55,-184.9 "/>
<text text-anchor="middle" x="672.9" y="-168.3" font-family="Courier New" font-size="14.00">offset</text>
<polyline fill="none" stroke="black" points="639.69,-160.1 706.1,-160.1 "/>
<text text-anchor="middle" x="672.9" y="-143.5" font-family="Courier New" font-size="14.00">0</text>
<polyline fill="none" stroke="black" points="639.69,-135.3 706.1,-135.3 "/>
<text text-anchor="middle" x="672.9" y="-118.7" font-family="Courier New" font-size="14.00">1</text>
<polyline fill="none" stroke="black" points="706.1,-110.5 706.1,-184.9 "/>
<text text-anchor="middle" x="865.33" y="-168.3" font-family="Courier New" font-size="14.00">type: variable (bytes)</text>
<polyline fill="none" stroke="black" points="706.1,-160.1 1024.55,-160.1 "/>
<text text-anchor="middle" x="865.33" y="-143.5" font-family="Courier New" font-size="14.00">mapping(address=&gt;bool): hasRole (32)</text>
<polyline fill="none" stroke="black" points="706.1,-135.3 1024.55,-135.3 "/>
<text text-anchor="middle" x="865.22" y="-118.7" font-family="Courier New" font-size="14.00">bytes32: adminRole (32)</text>
</g>
<!-- 3&#45;&gt;1 -->
<g id="edge1" class="edge">
<title>3:3&#45;&gt;1</title>
<path fill="none" stroke="black" d="M510.88,-115.1C549.44,-115.1 590.36,-118.34 629.59,-123.08"/>
<polygon fill="black" stroke="black" points="629.18,-126.55 639.53,-124.32 630.04,-119.61 629.18,-126.55"/>
</g>
<!-- 2 -->
<g id="node3" class="node">
<title>2</title>
<polygon fill="#f2f2f2" stroke="black" points="546.88,-0.5 546.88,-91.7 1117.37,-91.7 1117.37,-0.5 546.88,-0.5"/>
<text text-anchor="middle" x="832.12" y="-75.1" font-family="Courier New" font-size="14.00">address[]: pools &lt;&lt;Array&gt;&gt;</text>
<text text-anchor="middle" x="832.12" y="-58.3" font-family="Courier New" font-size="14.00">0xb10e2d527612073b26eecdfd717e6a320cf44b4afac2b0732d9fcbe2b7fa0cf6</text>
<polyline fill="none" stroke="black" points="546.88,-50.1 1117.37,-50.1 "/>
<text text-anchor="middle" x="639.08" y="-33.5" font-family="Courier New" font-size="14.00">offset</text>
<polyline fill="none" stroke="black" points="546.88,-25.3 731.29,-25.3 "/>
<text text-anchor="middle" x="639.08" y="-8.7" font-family="Courier New" font-size="14.00">0</text>
<polyline fill="none" stroke="black" points="731.29,-0.5 731.29,-50.1 "/>
<text text-anchor="middle" x="923.91" y="-33.5" font-family="Courier New" font-size="14.00">type: variable (bytes)</text>
<polyline fill="none" stroke="black" points="731.29,-25.3 1116.52,-25.3 "/>
<text text-anchor="middle" x="836" y="-8.7" font-family="Courier New" font-size="14.00">unallocated (12)</text>
<polyline fill="none" stroke="black" points="940.71,-0.5 940.71,-25.3 "/>
<text text-anchor="middle" x="1028.62" y="-8.7" font-family="Courier New" font-size="14.00">address (20)</text>
</g>
<!-- 3&#45;&gt;2 -->
<g id="edge2" class="edge">
<title>3:5&#45;&gt;2</title>
<path fill="none" stroke="black" d="M510.88,-90.1C519.35,-90.1 527.93,-89.95 536.59,-89.66"/>
<polygon fill="black" stroke="black" points="536.93,-93.15 546.78,-89.26 536.65,-86.15 536.93,-93.15"/>
</g>
</g>
</svg>
