<?xml version="1.0" encoding="UTF-8" standalone="no"?>
<!DOCTYPE svg PUBLIC "-//W3C//DTD SVG 1.1//EN"
 "http://www.w3.org/Graphics/SVG/1.1/DTD/svg11.dtd">
<!-- Generated by graphviz version 5.0.0 (20220707.1540)
 -->
<!-- Title: StorageDiagram Pages: 1 -->
<svg width="1717pt" height="378pt"
 viewBox="0.00 0.00 1717.05 377.80" xmlns="http://www.w3.org/2000/svg" xmlns:xlink="http://www.w3.org/1999/xlink">
<g id="graph0" class="graph" transform="scale(1 1) rotate(0) translate(4 373.8)">
<title>StorageDiagram</title>
<polygon fill="white" stroke="transparent" points="-4,4 -4,-373.8 1713.05,-373.8 1713.05,4 -4,4"/>
<!-- 3 -->
<g id="node1" class="node">
<title>3</title>
<polygon fill="#f2f2f2" stroke="black" points="0,-46.9 0,-369.3 670.5,-369.3 670.5,-46.9 0,-46.9"/>
<text text-anchor="middle" x="335.25" y="-352.7" font-family="Courier New" font-size="14.00">HexOneVault &lt;&lt;Contract&gt;&gt;</text>
<polyline fill="none" stroke="black" points="0,-344.5 670.5,-344.5 "/>
<text text-anchor="middle" x="24.8" y="-327.9" font-family="Courier New" font-size="14.00">slot</text>
<polyline fill="none" stroke="black" points="0,-319.7 49.61,-319.7 "/>
<text text-anchor="middle" x="24.8" y="-303.1" font-family="Courier New" font-size="14.00">0</text>
<polyline fill="none" stroke="black" points="0,-294.9 49.61,-294.9 "/>
<text text-anchor="middle" x="24.8" y="-278.3" font-family="Courier New" font-size="14.00">1</text>
<polyline fill="none" stroke="black" points="0,-270.1 49.61,-270.1 "/>
<text text-anchor="middle" x="24.8" y="-253.5" font-family="Courier New" font-size="14.00">2</text>
<polyline fill="none" stroke="black" points="0,-245.3 49.61,-245.3 "/>
<text text-anchor="middle" x="24.8" y="-228.7" font-family="Courier New" font-size="14.00">3</text>
<polyline fill="none" stroke="black" points="0,-220.5 49.61,-220.5 "/>
<text text-anchor="middle" x="24.8" y="-203.9" font-family="Courier New" font-size="14.00">4</text>
<polyline fill="none" stroke="black" points="0,-195.7 49.61,-195.7 "/>
<text text-anchor="middle" x="24.8" y="-179.1" font-family="Courier New" font-size="14.00">5</text>
<polyline fill="none" stroke="black" points="0,-170.9 49.61,-170.9 "/>
<text text-anchor="middle" x="24.8" y="-154.3" font-family="Courier New" font-size="14.00">6</text>
<polyline fill="none" stroke="black" points="0,-146.1 49.61,-146.1 "/>
<text text-anchor="middle" x="24.8" y="-129.5" font-family="Courier New" font-size="14.00">7</text>
<polyline fill="none" stroke="black" points="0,-121.3 49.61,-121.3 "/>
<text text-anchor="middle" x="24.8" y="-104.7" font-family="Courier New" font-size="14.00">8</text>
<polyline fill="none" stroke="black" points="0,-96.5 49.61,-96.5 "/>
<text text-anchor="middle" x="24.8" y="-79.9" font-family="Courier New" font-size="14.00">9</text>
<polyline fill="none" stroke="black" points="0,-71.7 49.61,-71.7 "/>
<text text-anchor="middle" x="24.8" y="-55.1" font-family="Courier New" font-size="14.00">10</text>
<polyline fill="none" stroke="black" points="49.61,-46.9 49.61,-344.5 "/>
<text text-anchor="middle" x="360.05" y="-327.9" font-family="Courier New" font-size="14.00">type: &lt;inherited contract&gt;.variable (bytes)</text>
<polyline fill="none" stroke="black" points="49.61,-319.7 670.5,-319.7 "/>
<text text-anchor="middle" x="359.62" y="-303.1" font-family="Courier New" font-size="14.00">string: ERC721._name (32)</text>
<polyline fill="none" stroke="black" points="49.61,-294.9 670.5,-294.9 "/>
<text text-anchor="middle" x="360.02" y="-278.3" font-family="Courier New" font-size="14.00">string: ERC721._symbol (32)</text>
<polyline fill="none" stroke="black" points="49.61,-270.1 670.5,-270.1 "/>
<text text-anchor="middle" x="359.84" y="-253.5" font-family="Courier New" font-size="14.00">mapping(uint256=&gt;address): ERC721._owners (32)</text>
<polyline fill="none" stroke="black" points="49.61,-245.3 670.5,-245.3 "/>
<text text-anchor="middle" x="359.74" y="-228.7" font-family="Courier New" font-size="14.00">mapping(address=&gt;uint256): ERC721._balances (32)</text>
<polyline fill="none" stroke="black" points="49.61,-220.5 670.5,-220.5 "/>
<text text-anchor="middle" x="359.94" y="-203.9" font-family="Courier New" font-size="14.00">mapping(uint256=&gt;address): ERC721._tokenApprovals (32)</text>
<polyline fill="none" stroke="black" points="49.61,-195.7 670.5,-195.7 "/>
<text text-anchor="middle" x="360.05" y="-179.1" font-family="Courier New" font-size="14.00">mapping(address=&gt;mapping(address=&gt;bool)): ERC721._operatorApprovals (32)</text>
<polyline fill="none" stroke="black" points="49.61,-170.9 670.5,-170.9 "/>
<text text-anchor="middle" x="359.74" y="-154.3" font-family="Courier New" font-size="14.00">mapping(bytes32=&gt;RoleData): AccessControl._roles (32)</text>
<polyline fill="none" stroke="black" points="49.61,-146.1 670.5,-146.1 "/>
<text text-anchor="middle" x="360.03" y="-129.5" font-family="Courier New" font-size="14.00">uint256: ReentrancyGuard._status (32)</text>
<polyline fill="none" stroke="black" points="49.61,-121.3 670.5,-121.3 "/>
<text text-anchor="middle" x="187.82" y="-104.7" font-family="Courier New" font-size="14.00">unallocated (31)</text>
<polyline fill="none" stroke="black" points="326.03,-96.5 326.03,-121.3 "/>
<text text-anchor="middle" x="497.84" y="-104.7" font-family="Courier New" font-size="14.00">bool: buybackEnabled (1)</text>
<polyline fill="none" stroke="black" points="49.61,-96.5 670.5,-96.5 "/>
<text text-anchor="middle" x="359.82" y="-79.9" font-family="Courier New" font-size="14.00">uint256: id (32)</text>
<polyline fill="none" stroke="black" points="49.61,-71.7 670.5,-71.7 "/>
<text text-anchor="middle" x="359.83" y="-55.1" font-family="Courier New" font-size="14.00">mapping(uint256=&gt;Stake): stakes (32)</text>
</g>
<!-- 1 -->
<g id="node2" class="node">
<title>1</title>
<polygon fill="#f2f2f2" stroke="black" points="1015.35,-118.5 1015.35,-217.7 1400.21,-217.7 1400.21,-118.5 1015.35,-118.5"/>
<text text-anchor="middle" x="1207.78" y="-201.1" font-family="Courier New" font-size="14.00">RoleData &lt;&lt;Struct&gt;&gt;</text>
<polyline fill="none" stroke="black" points="1015.35,-192.9 1400.21,-192.9 "/>
<text text-anchor="middle" x="1048.55" y="-176.3" font-family="Courier New" font-size="14.00">offset</text>
<polyline fill="none" stroke="black" points="1015.35,-168.1 1081.76,-168.1 "/>
<text text-anchor="middle" x="1048.55" y="-151.5" font-family="Courier New" font-size="14.00">0</text>
<polyline fill="none" stroke="black" points="1015.35,-143.3 1081.76,-143.3 "/>
<text text-anchor="middle" x="1048.55" y="-126.7" font-family="Courier New" font-size="14.00">1</text>
<polyline fill="none" stroke="black" points="1081.76,-118.5 1081.76,-192.9 "/>
<text text-anchor="middle" x="1240.98" y="-176.3" font-family="Courier New" font-size="14.00">type: variable (bytes)</text>
<polyline fill="none" stroke="black" points="1081.76,-168.1 1400.21,-168.1 "/>
<text text-anchor="middle" x="1240.98" y="-151.5" font-family="Courier New" font-size="14.00">mapping(address=&gt;bool): hasRole (32)</text>
<polyline fill="none" stroke="black" points="1081.76,-143.3 1400.21,-143.3 "/>
<text text-anchor="middle" x="1240.87" y="-126.7" font-family="Courier New" font-size="14.00">bytes32: adminRole (32)</text>
</g>
<!-- 3&#45;&gt;1 -->
<g id="edge1" class="edge">
<title>3:9&#45;&gt;1</title>
<path fill="none" stroke="black" d="M670.5,-158.1C781.01,-158.1 904.31,-160.25 1004.79,-162.55"/>
<polygon fill="black" stroke="black" points="1004.98,-166.06 1015.06,-162.79 1005.14,-159.06 1004.98,-166.06"/>
</g>
<!-- 2 -->
<g id="node3" class="node">
<title>2</title>
<polygon fill="#f2f2f2" stroke="black" points="706.5,-0.5 706.5,-99.7 1709.05,-99.7 1709.05,-0.5 706.5,-0.5"/>
<text text-anchor="middle" x="1207.78" y="-83.1" font-family="Courier New" font-size="14.00">Stake &lt;&lt;Struct&gt;&gt;</text>
<polyline fill="none" stroke="black" points="706.5,-74.9 1709.05,-74.9 "/>
<text text-anchor="middle" x="739.71" y="-58.3" font-family="Courier New" font-size="14.00">offset</text>
<polyline fill="none" stroke="black" points="706.5,-50.1 772.91,-50.1 "/>
<text text-anchor="middle" x="739.71" y="-33.5" font-family="Courier New" font-size="14.00">0</text>
<polyline fill="none" stroke="black" points="706.5,-25.3 772.91,-25.3 "/>
<text text-anchor="middle" x="739.71" y="-8.7" font-family="Courier New" font-size="14.00">1</text>
<polyline fill="none" stroke="black" points="772.91,-0.5 772.91,-74.9 "/>
<text text-anchor="middle" x="1240.98" y="-58.3" font-family="Courier New" font-size="14.00">type: variable (bytes)</text>
<polyline fill="none" stroke="black" points="772.91,-50.1 1709.05,-50.1 "/>
<text text-anchor="middle" x="1240.52" y="-33.5" font-family="Courier New" font-size="14.00">uint256: debt (32)</text>
<polyline fill="none" stroke="black" points="772.91,-25.3 1709.05,-25.3 "/>
<text text-anchor="middle" x="843.92" y="-8.7" font-family="Courier New" font-size="14.00">unallocated (5)</text>
<polyline fill="none" stroke="black" points="914.93,-0.5 914.93,-25.3 "/>
<text text-anchor="middle" x="985.94" y="-8.7" font-family="Courier New" font-size="14.00">uint16: end (2)</text>
<polyline fill="none" stroke="black" points="1056.95,-0.5 1056.95,-25.3 "/>
<text text-anchor="middle" x="1136.36" y="-8.7" font-family="Courier New" font-size="14.00">uint16: start (2)</text>
<polyline fill="none" stroke="black" points="1215.78,-0.5 1215.78,-25.3 "/>
<text text-anchor="middle" x="1295.19" y="-8.7" font-family="Courier New" font-size="14.00">uint40: param (5)</text>
<polyline fill="none" stroke="black" points="1374.6,-0.5 1374.6,-25.3 "/>
<text text-anchor="middle" x="1458.21" y="-8.7" font-family="Courier New" font-size="14.00">uint72: shares (9)</text>
<polyline fill="none" stroke="black" points="1541.82,-0.5 1541.82,-25.3 "/>
<text text-anchor="middle" x="1625.44" y="-8.7" font-family="Courier New" font-size="14.00">uint72: amount (9)</text>
</g>
<!-- 3&#45;&gt;2 -->
<g id="edge2" class="edge">
<title>3:19&#45;&gt;2</title>
<path fill="none" stroke="black" d="M670.5,-59.1C678.95,-59.1 687.48,-59.09 696.06,-59.07"/>
<polygon fill="black" stroke="black" points="696.17,-62.57 706.16,-59.04 696.15,-55.57 696.17,-62.57"/>
</g>
</g>
</svg>
