<?xml version="1.0" encoding="UTF-8" standalone="no"?>
<!DOCTYPE svg PUBLIC "-//W3C//DTD SVG 1.1//EN"
 "http://www.w3.org/Graphics/SVG/1.1/DTD/svg11.dtd">
<!-- Generated by graphviz version 5.0.0 (20220707.1540)
 -->
<!-- Title: StorageDiagram Pages: 1 -->
<svg width="1057pt" height="244pt"
 viewBox="0.00 0.00 1057.35 244.20" xmlns="http://www.w3.org/2000/svg" xmlns:xlink="http://www.w3.org/1999/xlink">
<g id="graph0" class="graph" transform="scale(1 1) rotate(0) translate(4 240.2)">
<title>StorageDiagram</title>
<polygon fill="white" stroke="transparent" points="-4,4 -4,-240.2 1053.35,-240.2 1053.35,4 -4,4"/>
<!-- 2 -->
<g id="node1" class="node">
<title>2</title>
<polygon fill="#f2f2f2" stroke="black" points="0,-12.5 0,-235.7 628.5,-235.7 628.5,-12.5 0,-12.5"/>
<text text-anchor="middle" x="314.25" y="-219.1" font-family="Courier New" font-size="14.00">HexitToken &lt;&lt;Contract&gt;&gt;</text>
<polyline fill="none" stroke="black" points="0,-210.9 628.5,-210.9 "/>
<text text-anchor="middle" x="24.8" y="-194.3" font-family="Courier New" font-size="14.00">slot</text>
<polyline fill="none" stroke="black" points="0,-186.1 49.61,-186.1 "/>
<text text-anchor="middle" x="24.8" y="-169.5" font-family="Courier New" font-size="14.00">0</text>
<polyline fill="none" stroke="black" points="0,-161.3 49.61,-161.3 "/>
<text text-anchor="middle" x="24.8" y="-144.7" font-family="Courier New" font-size="14.00">1</text>
<polyline fill="none" stroke="black" points="0,-136.5 49.61,-136.5 "/>
<text text-anchor="middle" x="24.8" y="-119.9" font-family="Courier New" font-size="14.00">2</text>
<polyline fill="none" stroke="black" points="0,-111.7 49.61,-111.7 "/>
<text text-anchor="middle" x="24.8" y="-95.1" font-family="Courier New" font-size="14.00">3</text>
<polyline fill="none" stroke="black" points="0,-86.9 49.61,-86.9 "/>
<text text-anchor="middle" x="24.8" y="-70.3" font-family="Courier New" font-size="14.00">4</text>
<polyline fill="none" stroke="black" points="0,-62.1 49.61,-62.1 "/>
<text text-anchor="middle" x="24.8" y="-45.5" font-family="Courier New" font-size="14.00">5</text>
<polyline fill="none" stroke="black" points="0,-37.3 49.61,-37.3 "/>
<text text-anchor="middle" x="24.8" y="-20.7" font-family="Courier New" font-size="14.00">6</text>
<polyline fill="none" stroke="black" points="49.61,-12.5 49.61,-210.9 "/>
<text text-anchor="middle" x="339.05" y="-194.3" font-family="Courier New" font-size="14.00">type: &lt;inherited contract&gt;.variable (bytes)</text>
<polyline fill="none" stroke="black" points="49.61,-186.1 628.5,-186.1 "/>
<text text-anchor="middle" x="339.04" y="-169.5" font-family="Courier New" font-size="14.00">mapping(address=&gt;uint256): ERC20._balances (32)</text>
<polyline fill="none" stroke="black" points="49.61,-161.3 628.5,-161.3 "/>
<text text-anchor="middle" x="339.05" y="-144.7" font-family="Courier New" font-size="14.00">mapping(address=&gt;mapping(address=&gt;uint256)): ERC20._allowances (32)</text>
<polyline fill="none" stroke="black" points="49.61,-136.5 628.5,-136.5 "/>
<text text-anchor="middle" x="339.03" y="-119.9" font-family="Courier New" font-size="14.00">uint256: ERC20._totalSupply (32)</text>
<polyline fill="none" stroke="black" points="49.61,-111.7 628.5,-111.7 "/>
<text text-anchor="middle" x="338.92" y="-95.1" font-family="Courier New" font-size="14.00">string: ERC20._name (32)</text>
<polyline fill="none" stroke="black" points="49.61,-86.9 628.5,-86.9 "/>
<text text-anchor="middle" x="338.82" y="-70.3" font-family="Courier New" font-size="14.00">string: ERC20._symbol (32)</text>
<polyline fill="none" stroke="black" points="49.61,-62.1 628.5,-62.1 "/>
<text text-anchor="middle" x="338.74" y="-45.5" font-family="Courier New" font-size="14.00">mapping(bytes32=&gt;RoleData): AccessControl._roles (32)</text>
<polyline fill="none" stroke="black" points="49.61,-37.3 628.5,-37.3 "/>
<text text-anchor="middle" x="338.93" y="-20.7" font-family="Courier New" font-size="14.00">mapping(bytes4=&gt;bool): initialized (32)</text>
</g>
<!-- 1 -->
<g id="node2" class="node">
<title>1</title>
<polygon fill="#f2f2f2" stroke="black" points="664.5,-0.5 664.5,-99.7 1049.35,-99.7 1049.35,-0.5 664.5,-0.5"/>
<text text-anchor="middle" x="856.93" y="-83.1" font-family="Courier New" font-size="14.00">RoleData &lt;&lt;Struct&gt;&gt;</text>
<polyline fill="none" stroke="black" points="664.5,-74.9 1049.35,-74.9 "/>
<text text-anchor="middle" x="697.7" y="-58.3" font-family="Courier New" font-size="14.00">offset</text>
<polyline fill="none" stroke="black" points="664.5,-50.1 730.91,-50.1 "/>
<text text-anchor="middle" x="697.7" y="-33.5" font-family="Courier New" font-size="14.00">0</text>
<polyline fill="none" stroke="black" points="664.5,-25.3 730.91,-25.3 "/>
<text text-anchor="middle" x="697.7" y="-8.7" font-family="Courier New" font-size="14.00">1</text>
<polyline fill="none" stroke="black" points="730.91,-0.5 730.91,-74.9 "/>
<text text-anchor="middle" x="890.13" y="-58.3" font-family="Courier New" font-size="14.00">type: variable (bytes)</text>
<polyline fill="none" stroke="black" points="730.91,-50.1 1049.35,-50.1 "/>
<text text-anchor="middle" x="890.13" y="-33.5" font-family="Courier New" font-size="14.00">mapping(address=&gt;bool): hasRole (32)</text>
<polyline fill="none" stroke="black" points="730.91,-25.3 1049.35,-25.3 "/>
<text text-anchor="middle" x="890.02" y="-8.7" font-family="Courier New" font-size="14.00">bytes32: adminRole (32)</text>
</g>
<!-- 2&#45;&gt;1 -->
<g id="edge1" class="edge">
<title>2:8&#45;&gt;1</title>
<path fill="none" stroke="black" d="M628.5,-50.1C636.87,-50.1 645.41,-50.1 654.05,-50.1"/>
<polygon fill="black" stroke="black" points="654.22,-53.6 664.22,-50.1 654.22,-46.6 654.22,-53.6"/>
</g>
</g>
</svg>
