<?xml version="1.0" encoding="UTF-8" standalone="no"?>
<!DOCTYPE svg PUBLIC "-//W3C//DTD SVG 1.1//EN"
 "http://www.w3.org/Graphics/SVG/1.1/DTD/svg11.dtd">
<!-- Generated by graphviz version 5.0.0 (20220707.1540)
 -->
<!-- Title: StorageDiagram Pages: 1 -->
<svg width="2343pt" height="837pt"
 viewBox="0.00 0.00 2342.74 837.20" xmlns="http://www.w3.org/2000/svg" xmlns:xlink="http://www.w3.org/1999/xlink">
<g id="graph0" class="graph" transform="scale(1 1) rotate(0) translate(4 833.2)">
<title>StorageDiagram</title>
<polygon fill="white" stroke="transparent" points="-4,4 -4,-833.2 2338.74,-833.2 2338.74,4 -4,4"/>
<!-- 10 -->
<g id="node1" class="node">
<title>10</title>
<polygon fill="#f2f2f2" stroke="black" points="0,-325.7 0,-598.5 519.28,-598.5 519.28,-325.7 0,-325.7"/>
<text text-anchor="middle" x="259.64" y="-581.9" font-family="Courier New" font-size="14.00">HexOneBootstrap &lt;&lt;Contract&gt;&gt;</text>
<polyline fill="none" stroke="black" points="0,-573.7 519.28,-573.7 "/>
<text text-anchor="middle" x="29" y="-557.1" font-family="Courier New" font-size="14.00">slot</text>
<polyline fill="none" stroke="black" points="0,-548.9 58.01,-548.9 "/>
<text text-anchor="middle" x="29" y="-532.3" font-family="Courier New" font-size="14.00">0</text>
<polyline fill="none" stroke="black" points="0,-524.1 58.01,-524.1 "/>
<text text-anchor="middle" x="29" y="-507.5" font-family="Courier New" font-size="14.00">1</text>
<polyline fill="none" stroke="black" points="0,-499.3 58.01,-499.3 "/>
<text text-anchor="middle" x="29" y="-482.7" font-family="Courier New" font-size="14.00">2</text>
<polyline fill="none" stroke="black" points="0,-474.5 58.01,-474.5 "/>
<text text-anchor="middle" x="29" y="-457.9" font-family="Courier New" font-size="14.00">3&#45;6</text>
<polyline fill="none" stroke="black" points="0,-449.7 58.01,-449.7 "/>
<text text-anchor="middle" x="29" y="-433.1" font-family="Courier New" font-size="14.00">7</text>
<polyline fill="none" stroke="black" points="0,-424.9 58.01,-424.9 "/>
<text text-anchor="middle" x="29" y="-408.3" font-family="Courier New" font-size="14.00">8</text>
<polyline fill="none" stroke="black" points="0,-400.1 58.01,-400.1 "/>
<text text-anchor="middle" x="29" y="-383.5" font-family="Courier New" font-size="14.00">9</text>
<polyline fill="none" stroke="black" points="0,-375.3 58.01,-375.3 "/>
<text text-anchor="middle" x="29" y="-358.7" font-family="Courier New" font-size="14.00">10</text>
<polyline fill="none" stroke="black" points="0,-350.5 58.01,-350.5 "/>
<text text-anchor="middle" x="29" y="-333.9" font-family="Courier New" font-size="14.00">11&#45;12</text>
<polyline fill="none" stroke="black" points="58.01,-325.7 58.01,-573.7 "/>
<text text-anchor="middle" x="288.64" y="-557.1" font-family="Courier New" font-size="14.00">type: &lt;inherited contract&gt;.variable (bytes)</text>
<polyline fill="none" stroke="black" points="58.01,-548.9 519.28,-548.9 "/>
<text text-anchor="middle" x="288.64" y="-532.3" font-family="Courier New" font-size="14.00">mapping(bytes32=&gt;RoleData): AccessControl._roles (32)</text>
<polyline fill="none" stroke="black" points="58.01,-524.1 519.28,-524.1 "/>
<text text-anchor="middle" x="288.43" y="-507.5" font-family="Courier New" font-size="14.00">uint256: ReentrancyGuard._status (32)</text>
<polyline fill="none" stroke="black" points="58.01,-499.3 519.28,-499.3 "/>
<text text-anchor="middle" x="158.22" y="-482.7" font-family="Courier New" font-size="14.00">unallocated (12)</text>
<polyline fill="none" stroke="black" points="258.43,-474.5 258.43,-499.3 "/>
<text text-anchor="middle" x="388.54" y="-482.7" font-family="Courier New" font-size="14.00">HexOneVault: vault (20)</text>
<polyline fill="none" stroke="black" points="58.01,-474.5 519.28,-474.5 "/>
<text text-anchor="middle" x="288.33" y="-457.9" font-family="Courier New" font-size="14.00">SacrificeInfo: sacrificeInfo (128)</text>
<polyline fill="none" stroke="black" points="58.01,-449.7 519.28,-449.7 "/>
<text text-anchor="middle" x="288.33" y="-433.1" font-family="Courier New" font-size="14.00">AirdropInfo: airdropInfo (32)</text>
<polyline fill="none" stroke="black" points="58.01,-424.9 519.28,-424.9 "/>
<text text-anchor="middle" x="288.43" y="-408.3" font-family="Courier New" font-size="14.00">Schedule: sacrificeSchedule (32)</text>
<polyline fill="none" stroke="black" points="58.01,-400.1 519.28,-400.1 "/>
<text text-anchor="middle" x="288.53" y="-383.5" font-family="Courier New" font-size="14.00">Schedule: airdropSchedule (32)</text>
<polyline fill="none" stroke="black" points="58.01,-375.3 519.28,-375.3 "/>
<text text-anchor="middle" x="288.44" y="-358.7" font-family="Courier New" font-size="14.00">mapping(address=&gt;UserInfo): userInfos (32)</text>
<polyline fill="none" stroke="black" points="58.01,-350.5 519.28,-350.5 "/>
<text text-anchor="middle" x="288.24" y="-333.9" font-family="Courier New" font-size="14.00">EnumerableSet.AddressSet: sacrificeTokens (64)</text>
</g>
<!-- 1 -->
<g id="node2" class="node">
<title>1</title>
<polygon fill="#f2f2f2" stroke="black" points="722.1,-729.5 722.1,-828.7 1106.96,-828.7 1106.96,-729.5 722.1,-729.5"/>
<text text-anchor="middle" x="914.53" y="-812.1" font-family="Courier New" font-size="14.00">RoleData &lt;&lt;Struct&gt;&gt;</text>
<polyline fill="none" stroke="black" points="722.1,-803.9 1106.96,-803.9 "/>
<text text-anchor="middle" x="755.31" y="-787.3" font-family="Courier New" font-size="14.00">offset</text>
<polyline fill="none" stroke="black" points="722.1,-779.1 788.51,-779.1 "/>
<text text-anchor="middle" x="755.31" y="-762.5" font-family="Courier New" font-size="14.00">0</text>
<polyline fill="none" stroke="black" points="722.1,-754.3 788.51,-754.3 "/>
<text text-anchor="middle" x="755.31" y="-737.7" font-family="Courier New" font-size="14.00">1</text>
<polyline fill="none" stroke="black" points="788.51,-729.5 788.51,-803.9 "/>
<text text-anchor="middle" x="947.74" y="-787.3" font-family="Courier New" font-size="14.00">type: variable (bytes)</text>
<polyline fill="none" stroke="black" points="788.51,-779.1 1106.96,-779.1 "/>
<text text-anchor="middle" x="947.74" y="-762.5" font-family="Courier New" font-size="14.00">mapping(address=&gt;bool): hasRole (32)</text>
<polyline fill="none" stroke="black" points="788.51,-754.3 1106.96,-754.3 "/>
<text text-anchor="middle" x="947.63" y="-737.7" font-family="Courier New" font-size="14.00">bytes32: adminRole (32)</text>
</g>
<!-- 10&#45;&gt;1 -->
<g id="edge1" class="edge">
<title>10:3&#45;&gt;1</title>
<path fill="none" stroke="black" d="M519.28,-536.1C602.61,-536.1 495.48,-662.07 555.28,-720.1 596.78,-760.37 654.54,-779.36 711.59,-787.14"/>
<polygon fill="black" stroke="black" points="711.49,-790.66 721.85,-788.42 712.36,-783.71 711.49,-790.66"/>
</g>
<!-- 2 -->
<g id="node3" class="node">
<title>2</title>
<polygon fill="#f2f2f2" stroke="black" points="768.31,-561.7 768.31,-710.5 1060.75,-710.5 1060.75,-561.7 768.31,-561.7"/>
<text text-anchor="middle" x="914.53" y="-693.9" font-family="Courier New" font-size="14.00">SacrificeInfo &lt;&lt;Struct&gt;&gt;</text>
<polyline fill="none" stroke="black" points="768.31,-685.7 1060.75,-685.7 "/>
<text text-anchor="middle" x="793.11" y="-669.1" font-family="Courier New" font-size="14.00">slot</text>
<polyline fill="none" stroke="black" points="768.31,-660.9 817.92,-660.9 "/>
<text text-anchor="middle" x="793.11" y="-644.3" font-family="Courier New" font-size="14.00">3</text>
<polyline fill="none" stroke="black" points="768.31,-636.1 817.92,-636.1 "/>
<text text-anchor="middle" x="793.11" y="-619.5" font-family="Courier New" font-size="14.00">4</text>
<polyline fill="none" stroke="black" points="768.31,-611.3 817.92,-611.3 "/>
<text text-anchor="middle" x="793.11" y="-594.7" font-family="Courier New" font-size="14.00">5</text>
<polyline fill="none" stroke="black" points="768.31,-586.5 817.92,-586.5 "/>
<text text-anchor="middle" x="793.11" y="-569.9" font-family="Courier New" font-size="14.00">6</text>
<polyline fill="none" stroke="black" points="817.92,-561.7 817.92,-685.7 "/>
<text text-anchor="middle" x="939.33" y="-669.1" font-family="Courier New" font-size="14.00">type: variable (bytes)</text>
<polyline fill="none" stroke="black" points="817.92,-660.9 1060.75,-660.9 "/>
<text text-anchor="middle" x="939.33" y="-644.3" font-family="Courier New" font-size="14.00">uint256: sacrificedUsd (32)</text>
<polyline fill="none" stroke="black" points="817.92,-636.1 1060.75,-636.1 "/>
<text text-anchor="middle" x="939.13" y="-619.5" font-family="Courier New" font-size="14.00">uint256: sacrificedHx (32)</text>
<polyline fill="none" stroke="black" points="817.92,-611.3 1060.75,-611.3 "/>
<text text-anchor="middle" x="938.93" y="-594.7" font-family="Courier New" font-size="14.00">uint256: remainingHx (32)</text>
<polyline fill="none" stroke="black" points="817.92,-586.5 1060.75,-586.5 "/>
<text text-anchor="middle" x="938.93" y="-569.9" font-family="Courier New" font-size="14.00">uint256: hexitMinted (32)</text>
</g>
<!-- 10&#45;&gt;2 -->
<g id="edge2" class="edge">
<title>10:10&#45;&gt;2</title>
<path fill="none" stroke="black" d="M519.28,-462.1C562.36,-462.1 522.62,-524.01 555.28,-552.1 611.02,-600.04 689.05,-621.85 758.06,-631.34"/>
<polygon fill="black" stroke="black" points="757.81,-634.84 768.18,-632.65 758.71,-627.9 757.81,-634.84"/>
</g>
<!-- 3 -->
<g id="node4" class="node">
<title>3</title>
<polygon fill="#f2f2f2" stroke="black" points="776.71,-467.9 776.71,-542.3 1052.35,-542.3 1052.35,-467.9 776.71,-467.9"/>
<text text-anchor="middle" x="914.53" y="-525.7" font-family="Courier New" font-size="14.00">AirdropInfo &lt;&lt;Struct&gt;&gt;</text>
<polyline fill="none" stroke="black" points="776.71,-517.5 1052.35,-517.5 "/>
<text text-anchor="middle" x="801.51" y="-500.9" font-family="Courier New" font-size="14.00">slot</text>
<polyline fill="none" stroke="black" points="776.71,-492.7 826.32,-492.7 "/>
<text text-anchor="middle" x="801.51" y="-476.1" font-family="Courier New" font-size="14.00">7</text>
<polyline fill="none" stroke="black" points="826.32,-467.9 826.32,-517.5 "/>
<text text-anchor="middle" x="939.33" y="-500.9" font-family="Courier New" font-size="14.00">type: variable (bytes)</text>
<polyline fill="none" stroke="black" points="826.32,-492.7 1052.35,-492.7 "/>
<text text-anchor="middle" x="939.33" y="-476.1" font-family="Courier New" font-size="14.00">uint256: hexitMinted (32)</text>
</g>
<!-- 10&#45;&gt;3 -->
<g id="edge3" class="edge">
<title>10:12&#45;&gt;3</title>
<path fill="none" stroke="black" d="M519.28,-437.1C538.03,-437.1 537.59,-452.88 555.28,-459.1 622.38,-482.69 700.35,-494.41 766.38,-500.14"/>
<polygon fill="black" stroke="black" points="766.2,-503.64 776.46,-500.98 766.78,-496.66 766.2,-503.64"/>
</g>
<!-- 4 -->
<g id="node5" class="node">
<title>4</title>
<polygon fill="#f2f2f2" stroke="black" points="555.28,-374.9 555.28,-449.3 1273.78,-449.3 1273.78,-374.9 555.28,-374.9"/>
<text text-anchor="middle" x="914.53" y="-432.7" font-family="Courier New" font-size="14.00">Schedule &lt;&lt;Struct&gt;&gt;</text>
<polyline fill="none" stroke="black" points="555.28,-424.5 1273.78,-424.5 "/>
<text text-anchor="middle" x="580.08" y="-407.9" font-family="Courier New" font-size="14.00">slot</text>
<polyline fill="none" stroke="black" points="555.28,-399.7 604.88,-399.7 "/>
<text text-anchor="middle" x="580.08" y="-383.1" font-family="Courier New" font-size="14.00">8</text>
<polyline fill="none" stroke="black" points="604.88,-374.9 604.88,-424.5 "/>
<text text-anchor="middle" x="939.33" y="-407.9" font-family="Courier New" font-size="14.00">type: variable (bytes)</text>
<polyline fill="none" stroke="black" points="604.88,-399.7 1273.78,-399.7 "/>
<text text-anchor="middle" x="680.1" y="-383.1" font-family="Courier New" font-size="14.00">unallocated (15)</text>
<polyline fill="none" stroke="black" points="755.31,-374.9 755.31,-399.7 "/>
<text text-anchor="middle" x="843.12" y="-383.1" font-family="Courier New" font-size="14.00">bool: processed (1)</text>
<polyline fill="none" stroke="black" points="930.93,-374.9 930.93,-399.7 "/>
<text text-anchor="middle" x="1022.95" y="-383.1" font-family="Courier New" font-size="14.00">uint64: claimEnd (8)</text>
<polyline fill="none" stroke="black" points="1114.96,-374.9 1114.96,-399.7 "/>
<text text-anchor="middle" x="1194.37" y="-383.1" font-family="Courier New" font-size="14.00">uint64: start (8)</text>
</g>
<!-- 10&#45;&gt;4 -->
<g id="edge4" class="edge">
<title>10:16&#45;&gt;4</title>
<path fill="none" stroke="black" d="M519.28,-412.1C527.77,-412.1 536.35,-412.1 545.02,-412.1"/>
<polygon fill="black" stroke="black" points="545.22,-415.6 555.22,-412.1 545.22,-408.6 545.22,-415.6"/>
</g>
<!-- 5 -->
<g id="node6" class="node">
<title>5</title>
<polygon fill="#f2f2f2" stroke="black" points="555.28,-281.9 555.28,-356.3 1273.78,-356.3 1273.78,-281.9 555.28,-281.9"/>
<text text-anchor="middle" x="914.53" y="-339.7" font-family="Courier New" font-size="14.00">Schedule &lt;&lt;Struct&gt;&gt;</text>
<polyline fill="none" stroke="black" points="555.28,-331.5 1273.78,-331.5 "/>
<text text-anchor="middle" x="580.08" y="-314.9" font-family="Courier New" font-size="14.00">slot</text>
<polyline fill="none" stroke="black" points="555.28,-306.7 604.88,-306.7 "/>
<text text-anchor="middle" x="580.08" y="-290.1" font-family="Courier New" font-size="14.00">9</text>
<polyline fill="none" stroke="black" points="604.88,-281.9 604.88,-331.5 "/>
<text text-anchor="middle" x="939.33" y="-314.9" font-family="Courier New" font-size="14.00">type: variable (bytes)</text>
<polyline fill="none" stroke="black" points="604.88,-306.7 1273.78,-306.7 "/>
<text text-anchor="middle" x="680.1" y="-290.1" font-family="Courier New" font-size="14.00">unallocated (15)</text>
<polyline fill="none" stroke="black" points="755.31,-281.9 755.31,-306.7 "/>
<text text-anchor="middle" x="843.12" y="-290.1" font-family="Courier New" font-size="14.00">bool: processed (1)</text>
<polyline fill="none" stroke="black" points="930.93,-281.9 930.93,-306.7 "/>
<text text-anchor="middle" x="1022.95" y="-290.1" font-family="Courier New" font-size="14.00">uint64: claimEnd (8)</text>
<polyline fill="none" stroke="black" points="1114.96,-281.9 1114.96,-306.7 "/>
<text text-anchor="middle" x="1194.37" y="-290.1" font-family="Courier New" font-size="14.00">uint64: start (8)</text>
</g>
<!-- 10&#45;&gt;5 -->
<g id="edge5" class="edge">
<title>10:20&#45;&gt;5</title>
<path fill="none" stroke="black" d="M519.28,-388.1C538.27,-388.1 537.43,-371.58 555.28,-365.1 560.62,-363.16 566.03,-361.3 571.51,-359.52"/>
<polygon fill="black" stroke="black" points="572.93,-362.74 581.42,-356.39 570.83,-356.06 572.93,-362.74"/>
</g>
<!-- 6 -->
<g id="node7" class="node">
<title>6</title>
<polygon fill="#f2f2f2" stroke="black" points="580.08,-139.1 580.08,-263.1 1248.98,-263.1 1248.98,-139.1 580.08,-139.1"/>
<text text-anchor="middle" x="914.53" y="-246.5" font-family="Courier New" font-size="14.00">UserInfo &lt;&lt;Struct&gt;&gt;</text>
<polyline fill="none" stroke="black" points="580.08,-238.3 1248.98,-238.3 "/>
<text text-anchor="middle" x="613.29" y="-221.7" font-family="Courier New" font-size="14.00">offset</text>
<polyline fill="none" stroke="black" points="580.08,-213.5 646.49,-213.5 "/>
<text text-anchor="middle" x="613.29" y="-196.9" font-family="Courier New" font-size="14.00">0</text>
<polyline fill="none" stroke="black" points="580.08,-188.7 646.49,-188.7 "/>
<text text-anchor="middle" x="613.29" y="-172.1" font-family="Courier New" font-size="14.00">1</text>
<polyline fill="none" stroke="black" points="580.08,-163.9 646.49,-163.9 "/>
<text text-anchor="middle" x="613.29" y="-147.3" font-family="Courier New" font-size="14.00">2</text>
<polyline fill="none" stroke="black" points="646.49,-139.1 646.49,-238.3 "/>
<text text-anchor="middle" x="947.74" y="-221.7" font-family="Courier New" font-size="14.00">type: variable (bytes)</text>
<polyline fill="none" stroke="black" points="646.49,-213.5 1248.98,-213.5 "/>
<text text-anchor="middle" x="947.41" y="-196.9" font-family="Courier New" font-size="14.00">uint256: sacrificedUsd (32)</text>
<polyline fill="none" stroke="black" points="646.49,-188.7 1248.98,-188.7 "/>
<text text-anchor="middle" x="947.51" y="-172.1" font-family="Courier New" font-size="14.00">uint256: hexitShares (32)</text>
<polyline fill="none" stroke="black" points="646.49,-163.9 1248.98,-163.9 "/>
<text text-anchor="middle" x="721.7" y="-147.3" font-family="Courier New" font-size="14.00">unallocated (30)</text>
<polyline fill="none" stroke="black" points="796.91,-139.1 796.91,-163.9 "/>
<text text-anchor="middle" x="905.73" y="-147.3" font-family="Courier New" font-size="14.00">bool: airdropClaimed (1)</text>
<polyline fill="none" stroke="black" points="1014.54,-139.1 1014.54,-163.9 "/>
<text text-anchor="middle" x="1131.76" y="-147.3" font-family="Courier New" font-size="14.00">bool: sacrificeClaimed (1)</text>
</g>
<!-- 10&#45;&gt;6 -->
<g id="edge6" class="edge">
<title>10:25&#45;&gt;6</title>
<path fill="none" stroke="black" d="M519.28,-363.1C562.77,-363.1 521.87,-299.95 555.28,-272.1 560.39,-267.84 565.69,-263.8 571.15,-259.99"/>
<polygon fill="black" stroke="black" points="573.48,-262.64 579.85,-254.18 569.59,-256.82 573.48,-262.64"/>
</g>
<!-- 9 -->
<g id="node10" class="node">
<title>9</title>
<polygon fill="#f2f2f2" stroke="black" points="759.51,-45.9 759.51,-120.3 1069.56,-120.3 1069.56,-45.9 759.51,-45.9"/>
<text text-anchor="middle" x="914.53" y="-103.7" font-family="Courier New" font-size="14.00">EnumerableSet.AddressSet &lt;&lt;Struct&gt;&gt;</text>
<polyline fill="none" stroke="black" points="759.51,-95.5 1069.56,-95.5 "/>
<text text-anchor="middle" x="790.51" y="-78.9" font-family="Courier New" font-size="14.00">slot</text>
<polyline fill="none" stroke="black" points="759.51,-70.7 821.51,-70.7 "/>
<text text-anchor="middle" x="790.51" y="-54.1" font-family="Courier New" font-size="14.00">11&#45;12</text>
<polyline fill="none" stroke="black" points="821.51,-45.9 821.51,-95.5 "/>
<text text-anchor="middle" x="945.43" y="-78.9" font-family="Courier New" font-size="14.00">type: variable (bytes)</text>
<polyline fill="none" stroke="black" points="821.51,-70.7 1069.35,-70.7 "/>
<text text-anchor="middle" x="945.43" y="-54.1" font-family="Courier New" font-size="14.00">Set: AddressSet._inner (64)</text>
</g>
<!-- 10&#45;&gt;9 -->
<g id="edge7" class="edge">
<title>10:30&#45;&gt;9</title>
<path fill="none" stroke="black" d="M519.28,-338.1C566.19,-338.1 521.44,-162.58 555.28,-130.1 605.96,-81.45 680.86,-66.37 749.09,-64.8"/>
<polygon fill="black" stroke="black" points="749.15,-68.3 759.11,-64.67 749.06,-61.3 749.15,-68.3"/>
</g>
<!-- 7 -->
<g id="node8" class="node">
<title>7</title>
<polygon fill="#f2f2f2" stroke="black" points="1764.25,-0.5 1764.25,-91.7 2334.74,-91.7 2334.74,-0.5 1764.25,-0.5"/>
<text text-anchor="middle" x="2049.49" y="-75.1" font-family="Courier New" font-size="14.00">bytes32[]: _values &lt;&lt;Array&gt;&gt;</text>
<text text-anchor="middle" x="2049.49" y="-58.3" font-family="Courier New" font-size="14.00">0x0175b7a638427703f0dbe7bb9bbf987a2551717b34e79f33b5b1008d1fa01db9</text>
<polyline fill="none" stroke="black" points="1764.25,-50.1 2334.74,-50.1 "/>
<text text-anchor="middle" x="1872.95" y="-33.5" font-family="Courier New" font-size="14.00">offset</text>
<polyline fill="none" stroke="black" points="1764.25,-25.3 1981.65,-25.3 "/>
<text text-anchor="middle" x="1872.95" y="-8.7" font-family="Courier New" font-size="14.00">0</text>
<polyline fill="none" stroke="black" points="1981.65,-0.5 1981.65,-50.1 "/>
<text text-anchor="middle" x="2158.07" y="-33.5" font-family="Courier New" font-size="14.00">type: variable (bytes)</text>
<polyline fill="none" stroke="black" points="1981.65,-25.3 2334.48,-25.3 "/>
<text text-anchor="middle" x="2158.06" y="-8.7" font-family="Courier New" font-size="14.00">bytes32 (32)</text>
</g>
<!-- 8 -->
<g id="node9" class="node">
<title>8</title>
<polygon fill="#f2f2f2" stroke="black" points="1309.78,-8.5 1309.78,-107.7 1728.25,-107.7 1728.25,-8.5 1309.78,-8.5"/>
<text text-anchor="middle" x="1519.01" y="-91.1" font-family="Courier New" font-size="14.00">Set &lt;&lt;Struct&gt;&gt;</text>
<polyline fill="none" stroke="black" points="1309.78,-82.9 1728.25,-82.9 "/>
<text text-anchor="middle" x="1334.59" y="-66.3" font-family="Courier New" font-size="14.00">slot</text>
<polyline fill="none" stroke="black" points="1309.78,-58.1 1359.39,-58.1 "/>
<text text-anchor="middle" x="1334.59" y="-41.5" font-family="Courier New" font-size="14.00">11</text>
<polyline fill="none" stroke="black" points="1309.78,-33.3 1359.39,-33.3 "/>
<text text-anchor="middle" x="1334.59" y="-16.7" font-family="Courier New" font-size="14.00">12</text>
<polyline fill="none" stroke="black" points="1359.39,-8.5 1359.39,-82.9 "/>
<text text-anchor="middle" x="1543.82" y="-66.3" font-family="Courier New" font-size="14.00">type: variable (bytes)</text>
<polyline fill="none" stroke="black" points="1359.39,-58.1 1728.25,-58.1 "/>
<text text-anchor="middle" x="1543.5" y="-41.5" font-family="Courier New" font-size="14.00">bytes32[]: _values (32)</text>
<polyline fill="none" stroke="black" points="1359.39,-33.3 1728.25,-33.3 "/>
<text text-anchor="middle" x="1543.82" y="-16.7" font-family="Courier New" font-size="14.00">mapping(bytes32=&gt;uint256): _positions (32)</text>
</g>
<!-- 8&#45;&gt;7 -->
<g id="edge8" class="edge">
<title>8:27&#45;&gt;7</title>
<path fill="none" stroke="black" d="M1728.25,-46.1C1736.64,-46.1 1745.15,-46.1 1753.75,-46.1"/>
<polygon fill="black" stroke="black" points="1753.87,-49.6 1763.87,-46.1 1753.87,-42.6 1753.87,-49.6"/>
</g>
<!-- 9&#45;&gt;8 -->
<g id="edge9" class="edge">
<title>9:29&#45;&gt;8</title>
<path fill="none" stroke="black" d="M1070.53,-58.1C1145.1,-58.1 1226.66,-58.1 1299.48,-58.1"/>
<polygon fill="black" stroke="black" points="1299.7,-61.6 1309.7,-58.1 1299.7,-54.6 1299.7,-61.6"/>
</g>
</g>
</svg>
