<?xml version="1.0" encoding="UTF-8" standalone="no"?>
<!DOCTYPE svg PUBLIC "-//W3C//DTD SVG 1.1//EN"
 "http://www.w3.org/Graphics/SVG/1.1/DTD/svg11.dtd">
<!-- Generated by graphviz version 5.0.0 (20220707.1540)
 -->
<!-- Title: StorageDiagram Pages: 1 -->
<svg width="940pt" height="207pt"
 viewBox="0.00 0.00 939.74 207.40" xmlns="http://www.w3.org/2000/svg" xmlns:xlink="http://www.w3.org/1999/xlink">
<g id="graph0" class="graph" transform="scale(1 1) rotate(0) translate(4 203.4)">
<title>StorageDiagram</title>
<polygon fill="white" stroke="transparent" points="-4,4 -4,-203.4 935.74,-203.4 935.74,4 -4,4"/>
<!-- 2 -->
<g id="node1" class="node">
<title>2</title>
<polygon fill="#f2f2f2" stroke="black" points="0,-0.5 0,-198.9 510.88,-198.9 510.88,-0.5 0,-0.5"/>
<text text-anchor="middle" x="255.44" y="-182.3" font-family="Courier New" font-size="14.00">HexOnePool &lt;&lt;Contract&gt;&gt;</text>
<polyline fill="none" stroke="black" points="0,-174.1 510.88,-174.1 "/>
<text text-anchor="middle" x="24.8" y="-157.5" font-family="Courier New" font-size="14.00">slot</text>
<polyline fill="none" stroke="black" points="0,-149.3 49.61,-149.3 "/>
<text text-anchor="middle" x="24.8" y="-132.7" font-family="Courier New" font-size="14.00">0</text>
<polyline fill="none" stroke="black" points="0,-124.5 49.61,-124.5 "/>
<text text-anchor="middle" x="24.8" y="-107.9" font-family="Courier New" font-size="14.00">1</text>
<polyline fill="none" stroke="black" points="0,-99.7 49.61,-99.7 "/>
<text text-anchor="middle" x="24.8" y="-83.1" font-family="Courier New" font-size="14.00">2</text>
<polyline fill="none" stroke="black" points="0,-74.9 49.61,-74.9 "/>
<text text-anchor="middle" x="24.8" y="-58.3" font-family="Courier New" font-size="14.00">3</text>
<polyline fill="none" stroke="black" points="0,-50.1 49.61,-50.1 "/>
<text text-anchor="middle" x="24.8" y="-33.5" font-family="Courier New" font-size="14.00">4</text>
<polyline fill="none" stroke="black" points="0,-25.3 49.61,-25.3 "/>
<text text-anchor="middle" x="24.8" y="-8.7" font-family="Courier New" font-size="14.00">5</text>
<polyline fill="none" stroke="black" points="49.61,-0.5 49.61,-174.1 "/>
<text text-anchor="middle" x="280.24" y="-157.5" font-family="Courier New" font-size="14.00">type: &lt;inherited contract&gt;.variable (bytes)</text>
<polyline fill="none" stroke="black" points="49.61,-149.3 510.88,-149.3 "/>
<text text-anchor="middle" x="280.24" y="-132.7" font-family="Courier New" font-size="14.00">mapping(bytes32=&gt;RoleData): AccessControl._roles (32)</text>
<polyline fill="none" stroke="black" points="49.61,-124.5 510.88,-124.5 "/>
<text text-anchor="middle" x="280.22" y="-107.9" font-family="Courier New" font-size="14.00">uint256: rewardPerToken (32)</text>
<polyline fill="none" stroke="black" points="49.61,-99.7 510.88,-99.7 "/>
<text text-anchor="middle" x="280.12" y="-83.1" font-family="Courier New" font-size="14.00">uint256: totalStaked (32)</text>
<polyline fill="none" stroke="black" points="49.61,-74.9 510.88,-74.9 "/>
<text text-anchor="middle" x="279.93" y="-58.3" font-family="Courier New" font-size="14.00">mapping(address=&gt;uint256): stakeOf (32)</text>
<polyline fill="none" stroke="black" points="49.61,-50.1 510.88,-50.1 "/>
<text text-anchor="middle" x="280.23" y="-33.5" font-family="Courier New" font-size="14.00">mapping(address=&gt;uint256): earned (32)</text>
<polyline fill="none" stroke="black" points="49.61,-25.3 510.88,-25.3 "/>
<text text-anchor="middle" x="280.23" y="-8.7" font-family="Courier New" font-size="14.00">mapping(address=&gt;uint256): lastUpdated (32)</text>
</g>
<!-- 1 -->
<g id="node2" class="node">
<title>1</title>
<polygon fill="#f2f2f2" stroke="black" points="546.88,-87.1 546.88,-186.3 931.74,-186.3 931.74,-87.1 546.88,-87.1"/>
<text text-anchor="middle" x="739.31" y="-169.7" font-family="Courier New" font-size="14.00">RoleData &lt;&lt;Struct&gt;&gt;</text>
<polyline fill="none" stroke="black" points="546.88,-161.5 931.74,-161.5 "/>
<text text-anchor="middle" x="580.08" y="-144.9" font-family="Courier New" font-size="14.00">offset</text>
<polyline fill="none" stroke="black" points="546.88,-136.7 613.29,-136.7 "/>
<text text-anchor="middle" x="580.08" y="-120.1" font-family="Courier New" font-size="14.00">0</text>
<polyline fill="none" stroke="black" points="546.88,-111.9 613.29,-111.9 "/>
<text text-anchor="middle" x="580.08" y="-95.3" font-family="Courier New" font-size="14.00">1</text>
<polyline fill="none" stroke="black" points="613.29,-87.1 613.29,-161.5 "/>
<text text-anchor="middle" x="772.51" y="-144.9" font-family="Courier New" font-size="14.00">type: variable (bytes)</text>
<polyline fill="none" stroke="black" points="613.29,-136.7 931.74,-136.7 "/>
<text text-anchor="middle" x="772.51" y="-120.1" font-family="Courier New" font-size="14.00">mapping(address=&gt;bool): hasRole (32)</text>
<polyline fill="none" stroke="black" points="613.29,-111.9 931.74,-111.9 "/>
<text text-anchor="middle" x="772.4" y="-95.3" font-family="Courier New" font-size="14.00">bytes32: adminRole (32)</text>
</g>
<!-- 2&#45;&gt;1 -->
<g id="edge1" class="edge">
<title>2:3&#45;&gt;1</title>
<path fill="none" stroke="black" d="M510.88,-136.7C519.25,-136.7 527.8,-136.7 536.43,-136.7"/>
<polygon fill="black" stroke="black" points="536.6,-140.2 546.6,-136.7 536.6,-133.2 536.6,-140.2"/>
</g>
</g>
</svg>
