<?xml version="1.0" encoding="UTF-8" standalone="no"?>
<!DOCTYPE svg PUBLIC "-//W3C//DTD SVG 1.1//EN"
 "http://www.w3.org/Graphics/SVG/1.1/DTD/svg11.dtd">
<!-- Generated by graphviz version 5.0.0 (20220707.1540)
 -->
<!-- Title: StorageDiagram Pages: 1 -->
<svg width="2159pt" height="522pt"
 viewBox="0.00 0.00 2158.71 521.80" xmlns="http://www.w3.org/2000/svg" xmlns:xlink="http://www.w3.org/1999/xlink">
<g id="graph0" class="graph" transform="scale(1 1) rotate(0) translate(4 517.8)">
<title>StorageDiagram</title>
<polygon fill="white" stroke="transparent" points="-4,4 -4,-517.8 2154.71,-517.8 2154.71,4 -4,4"/>
<!-- 9 -->
<g id="node1" class="node">
<title>9</title>
<polygon fill="#f2f2f2" stroke="black" points="0,-236.1 0,-459.3 544.48,-459.3 544.48,-236.1 0,-236.1"/>
<text text-anchor="middle" x="272.24" y="-442.7" font-family="Courier New" font-size="14.00">HexOnePriceFeed &lt;&lt;Contract&gt;&gt;</text>
<polyline fill="none" stroke="black" points="0,-434.5 544.48,-434.5 "/>
<text text-anchor="middle" x="24.8" y="-417.9" font-family="Courier New" font-size="14.00">slot</text>
<polyline fill="none" stroke="black" points="0,-409.7 49.61,-409.7 "/>
<text text-anchor="middle" x="24.8" y="-393.1" font-family="Courier New" font-size="14.00">0</text>
<polyline fill="none" stroke="black" points="0,-384.9 49.61,-384.9 "/>
<text text-anchor="middle" x="24.8" y="-368.3" font-family="Courier New" font-size="14.00">1</text>
<polyline fill="none" stroke="black" points="0,-360.1 49.61,-360.1 "/>
<text text-anchor="middle" x="24.8" y="-343.5" font-family="Courier New" font-size="14.00">2</text>
<polyline fill="none" stroke="black" points="0,-335.3 49.61,-335.3 "/>
<text text-anchor="middle" x="24.8" y="-318.7" font-family="Courier New" font-size="14.00">3&#45;4</text>
<polyline fill="none" stroke="black" points="0,-310.5 49.61,-310.5 "/>
<text text-anchor="middle" x="24.8" y="-293.9" font-family="Courier New" font-size="14.00">5</text>
<polyline fill="none" stroke="black" points="0,-285.7 49.61,-285.7 "/>
<text text-anchor="middle" x="24.8" y="-269.1" font-family="Courier New" font-size="14.00">6</text>
<polyline fill="none" stroke="black" points="0,-260.9 49.61,-260.9 "/>
<text text-anchor="middle" x="24.8" y="-244.3" font-family="Courier New" font-size="14.00">7</text>
<polyline fill="none" stroke="black" points="49.61,-236.1 49.61,-434.5 "/>
<text text-anchor="middle" x="297.04" y="-417.9" font-family="Courier New" font-size="14.00">type: &lt;inherited contract&gt;.variable (bytes)</text>
<polyline fill="none" stroke="black" points="49.61,-409.7 544.48,-409.7 "/>
<text text-anchor="middle" x="296.74" y="-393.1" font-family="Courier New" font-size="14.00">mapping(bytes32=&gt;RoleData): AccessControl._roles (32)</text>
<polyline fill="none" stroke="black" points="49.61,-384.9 544.48,-384.9 "/>
<text text-anchor="middle" x="296.62" y="-368.3" font-family="Courier New" font-size="14.00">uint256: period (32)</text>
<polyline fill="none" stroke="black" points="49.61,-360.1 544.48,-360.1 "/>
<text text-anchor="middle" x="296.92" y="-343.5" font-family="Courier New" font-size="14.00">uint256: lastUpdate (32)</text>
<polyline fill="none" stroke="black" points="49.61,-335.3 544.48,-335.3 "/>
<text text-anchor="middle" x="296.83" y="-318.7" font-family="Courier New" font-size="14.00">EnumerableSet.AddressSet: pairs (64)</text>
<polyline fill="none" stroke="black" points="49.61,-310.5 544.48,-310.5 "/>
<text text-anchor="middle" x="297.04" y="-293.9" font-family="Courier New" font-size="14.00">mapping(address=&gt;mapping(address=&gt;address[])): paths (32)</text>
<polyline fill="none" stroke="black" points="49.61,-285.7 544.48,-285.7 "/>
<text text-anchor="middle" x="296.74" y="-269.1" font-family="Courier New" font-size="14.00">mapping(address=&gt;Observation): observations (32)</text>
<polyline fill="none" stroke="black" points="49.61,-260.9 544.48,-260.9 "/>
<text text-anchor="middle" x="296.83" y="-244.3" font-family="Courier New" font-size="14.00">mapping(address=&gt;Price): prices (32)</text>
</g>
<!-- 1 -->
<g id="node2" class="node">
<title>1</title>
<polygon fill="#f2f2f2" stroke="black" points="630.49,-414.1 630.49,-513.3 1015.35,-513.3 1015.35,-414.1 630.49,-414.1"/>
<text text-anchor="middle" x="822.92" y="-496.7" font-family="Courier New" font-size="14.00">RoleData &lt;&lt;Struct&gt;&gt;</text>
<polyline fill="none" stroke="black" points="630.49,-488.5 1015.35,-488.5 "/>
<text text-anchor="middle" x="663.69" y="-471.9" font-family="Courier New" font-size="14.00">offset</text>
<polyline fill="none" stroke="black" points="630.49,-463.7 696.9,-463.7 "/>
<text text-anchor="middle" x="663.69" y="-447.1" font-family="Courier New" font-size="14.00">0</text>
<polyline fill="none" stroke="black" points="630.49,-438.9 696.9,-438.9 "/>
<text text-anchor="middle" x="663.69" y="-422.3" font-family="Courier New" font-size="14.00">1</text>
<polyline fill="none" stroke="black" points="696.9,-414.1 696.9,-488.5 "/>
<text text-anchor="middle" x="856.12" y="-471.9" font-family="Courier New" font-size="14.00">type: variable (bytes)</text>
<polyline fill="none" stroke="black" points="696.9,-463.7 1015.35,-463.7 "/>
<text text-anchor="middle" x="856.12" y="-447.1" font-family="Courier New" font-size="14.00">mapping(address=&gt;bool): hasRole (32)</text>
<polyline fill="none" stroke="black" points="696.9,-438.9 1015.35,-438.9 "/>
<text text-anchor="middle" x="856.01" y="-422.3" font-family="Courier New" font-size="14.00">bytes32: adminRole (32)</text>
</g>
<!-- 9&#45;&gt;1 -->
<g id="edge1" class="edge">
<title>9:3&#45;&gt;1</title>
<path fill="none" stroke="black" d="M544.48,-397.7C549.63,-397.7 580.7,-404.66 620.31,-414.06"/>
<polygon fill="black" stroke="black" points="619.73,-417.52 630.27,-416.44 621.35,-410.71 619.73,-417.52"/>
</g>
<!-- 4 -->
<g id="node5" class="node">
<title>4</title>
<polygon fill="#f2f2f2" stroke="black" points="667.9,-320.5 667.9,-394.9 977.94,-394.9 977.94,-320.5 667.9,-320.5"/>
<text text-anchor="middle" x="822.92" y="-378.3" font-family="Courier New" font-size="14.00">EnumerableSet.AddressSet &lt;&lt;Struct&gt;&gt;</text>
<polyline fill="none" stroke="black" points="667.9,-370.1 977.94,-370.1 "/>
<text text-anchor="middle" x="696.7" y="-353.5" font-family="Courier New" font-size="14.00">slot</text>
<polyline fill="none" stroke="black" points="667.9,-345.3 725.5,-345.3 "/>
<text text-anchor="middle" x="696.7" y="-328.7" font-family="Courier New" font-size="14.00">3&#45;4</text>
<polyline fill="none" stroke="black" points="725.5,-320.5 725.5,-370.1 "/>
<text text-anchor="middle" x="851.42" y="-353.5" font-family="Courier New" font-size="14.00">type: variable (bytes)</text>
<polyline fill="none" stroke="black" points="725.5,-345.3 977.34,-345.3 "/>
<text text-anchor="middle" x="851.42" y="-328.7" font-family="Courier New" font-size="14.00">Set: AddressSet._inner (64)</text>
</g>
<!-- 9&#45;&gt;4 -->
<g id="edge2" class="edge">
<title>9:10&#45;&gt;4</title>
<path fill="none" stroke="black" d="M544.48,-322.7C581.09,-322.7 620.21,-325.74 657.18,-330.02"/>
<polygon fill="black" stroke="black" points="657.2,-333.55 667.54,-331.26 658.03,-326.6 657.2,-333.55"/>
</g>
<!-- 5 -->
<g id="node6" class="node">
<title>5</title>
<polygon fill="#f2f2f2" stroke="black" points="580.48,-177.7 580.48,-301.7 1065.35,-301.7 1065.35,-177.7 580.48,-177.7"/>
<text text-anchor="middle" x="822.92" y="-285.1" font-family="Courier New" font-size="14.00">Observation &lt;&lt;Struct&gt;&gt;</text>
<polyline fill="none" stroke="black" points="580.48,-276.9 1065.35,-276.9 "/>
<text text-anchor="middle" x="613.69" y="-260.3" font-family="Courier New" font-size="14.00">offset</text>
<polyline fill="none" stroke="black" points="580.48,-252.1 646.89,-252.1 "/>
<text text-anchor="middle" x="613.69" y="-235.5" font-family="Courier New" font-size="14.00">0</text>
<polyline fill="none" stroke="black" points="580.48,-227.3 646.89,-227.3 "/>
<text text-anchor="middle" x="613.69" y="-210.7" font-family="Courier New" font-size="14.00">1</text>
<polyline fill="none" stroke="black" points="580.48,-202.5 646.89,-202.5 "/>
<text text-anchor="middle" x="613.69" y="-185.9" font-family="Courier New" font-size="14.00">2</text>
<polyline fill="none" stroke="black" points="646.89,-177.7 646.89,-276.9 "/>
<text text-anchor="middle" x="856.12" y="-260.3" font-family="Courier New" font-size="14.00">type: variable (bytes)</text>
<polyline fill="none" stroke="black" points="646.89,-252.1 1065.35,-252.1 "/>
<text text-anchor="middle" x="722.1" y="-235.5" font-family="Courier New" font-size="14.00">unallocated (28)</text>
<polyline fill="none" stroke="black" points="797.31,-227.3 797.31,-252.1 "/>
<text text-anchor="middle" x="931.33" y="-235.5" font-family="Courier New" font-size="14.00">uint32: blockTimestampLast (4)</text>
<polyline fill="none" stroke="black" points="646.89,-227.3 1065.35,-227.3 "/>
<text text-anchor="middle" x="855.71" y="-210.7" font-family="Courier New" font-size="14.00">uint256: price0CumulativeLast (32)</text>
<polyline fill="none" stroke="black" points="646.89,-202.5 1065.35,-202.5 "/>
<text text-anchor="middle" x="855.71" y="-185.9" font-family="Courier New" font-size="14.00">uint256: price1CumulativeLast (32)</text>
</g>
<!-- 9&#45;&gt;5 -->
<g id="edge3" class="edge">
<title>9:15&#45;&gt;5</title>
<path fill="none" stroke="black" d="M544.48,-273.7C552.94,-273.7 561.53,-273.54 570.2,-273.25"/>
<polygon fill="black" stroke="black" points="570.56,-276.74 580.41,-272.84 570.28,-269.74 570.56,-276.74"/>
</g>
<!-- 8 -->
<g id="node9" class="node">
<title>8</title>
<polygon fill="#f2f2f2" stroke="black" points="643.09,-59.1 643.09,-158.3 1002.75,-158.3 1002.75,-59.1 643.09,-59.1"/>
<text text-anchor="middle" x="822.92" y="-141.7" font-family="Courier New" font-size="14.00">Price &lt;&lt;Struct&gt;&gt;</text>
<polyline fill="none" stroke="black" points="643.09,-133.5 1002.75,-133.5 "/>
<text text-anchor="middle" x="676.3" y="-116.9" font-family="Courier New" font-size="14.00">offset</text>
<polyline fill="none" stroke="black" points="643.09,-108.7 709.5,-108.7 "/>
<text text-anchor="middle" x="676.3" y="-92.1" font-family="Courier New" font-size="14.00">0</text>
<polyline fill="none" stroke="black" points="643.09,-83.9 709.5,-83.9 "/>
<text text-anchor="middle" x="676.3" y="-67.3" font-family="Courier New" font-size="14.00">1</text>
<polyline fill="none" stroke="black" points="709.5,-59.1 709.5,-133.5 "/>
<text text-anchor="middle" x="856.12" y="-116.9" font-family="Courier New" font-size="14.00">type: variable (bytes)</text>
<polyline fill="none" stroke="black" points="709.5,-108.7 1002.75,-108.7 "/>
<text text-anchor="middle" x="856.12" y="-92.1" font-family="Courier New" font-size="14.00">FixedPoint.uq112x112: price0 (32)</text>
<polyline fill="none" stroke="black" points="709.5,-83.9 1002.75,-83.9 "/>
<text text-anchor="middle" x="856.12" y="-67.3" font-family="Courier New" font-size="14.00">FixedPoint.uq112x112: price1 (32)</text>
</g>
<!-- 9&#45;&gt;8 -->
<g id="edge4" class="edge">
<title>9:20&#45;&gt;8</title>
<path fill="none" stroke="black" d="M544.48,-248.7C583.47,-248.7 550.56,-193.69 580.48,-168.7 596.15,-155.61 614.27,-145.32 633.39,-137.22"/>
<polygon fill="black" stroke="black" points="634.87,-140.4 642.85,-133.42 632.26,-133.9 634.87,-140.4"/>
</g>
<!-- 2 -->
<g id="node3" class="node">
<title>2</title>
<polygon fill="#f2f2f2" stroke="black" points="1580.22,-275.1 1580.22,-366.3 2150.71,-366.3 2150.71,-275.1 1580.22,-275.1"/>
<text text-anchor="middle" x="1865.46" y="-349.7" font-family="Courier New" font-size="14.00">bytes32[]: _values &lt;&lt;Array&gt;&gt;</text>
<text text-anchor="middle" x="1865.46" y="-332.9" font-family="Courier New" font-size="14.00">0xc2575a0e9e593c00f959f8c92f12db2869c3395a3b0502d05e2516446f71f85b</text>
<polyline fill="none" stroke="black" points="1580.22,-324.7 2150.71,-324.7 "/>
<text text-anchor="middle" x="1688.92" y="-308.1" font-family="Courier New" font-size="14.00">offset</text>
<polyline fill="none" stroke="black" points="1580.22,-299.9 1797.63,-299.9 "/>
<text text-anchor="middle" x="1688.92" y="-283.3" font-family="Courier New" font-size="14.00">0</text>
<polyline fill="none" stroke="black" points="1797.63,-275.1 1797.63,-324.7 "/>
<text text-anchor="middle" x="1974.04" y="-308.1" font-family="Courier New" font-size="14.00">type: variable (bytes)</text>
<polyline fill="none" stroke="black" points="1797.63,-299.9 2150.46,-299.9 "/>
<text text-anchor="middle" x="1974.04" y="-283.3" font-family="Courier New" font-size="14.00">bytes32 (32)</text>
</g>
<!-- 3 -->
<g id="node4" class="node">
<title>3</title>
<polygon fill="#f2f2f2" stroke="black" points="1113.56,-283.1 1113.56,-382.3 1532.02,-382.3 1532.02,-283.1 1113.56,-283.1"/>
<text text-anchor="middle" x="1322.79" y="-365.7" font-family="Courier New" font-size="14.00">Set &lt;&lt;Struct&gt;&gt;</text>
<polyline fill="none" stroke="black" points="1113.56,-357.5 1532.02,-357.5 "/>
<text text-anchor="middle" x="1138.36" y="-340.9" font-family="Courier New" font-size="14.00">slot</text>
<polyline fill="none" stroke="black" points="1113.56,-332.7 1163.16,-332.7 "/>
<text text-anchor="middle" x="1138.36" y="-316.1" font-family="Courier New" font-size="14.00">3</text>
<polyline fill="none" stroke="black" points="1113.56,-307.9 1163.16,-307.9 "/>
<text text-anchor="middle" x="1138.36" y="-291.3" font-family="Courier New" font-size="14.00">4</text>
<polyline fill="none" stroke="black" points="1163.16,-283.1 1163.16,-357.5 "/>
<text text-anchor="middle" x="1347.59" y="-340.9" font-family="Courier New" font-size="14.00">type: variable (bytes)</text>
<polyline fill="none" stroke="black" points="1163.16,-332.7 1532.02,-332.7 "/>
<text text-anchor="middle" x="1347.28" y="-316.1" font-family="Courier New" font-size="14.00">bytes32[]: _values (32)</text>
<polyline fill="none" stroke="black" points="1163.16,-307.9 1532.02,-307.9 "/>
<text text-anchor="middle" x="1347.59" y="-291.3" font-family="Courier New" font-size="14.00">mapping(bytes32=&gt;uint256): _positions (32)</text>
</g>
<!-- 3&#45;&gt;2 -->
<g id="edge5" class="edge">
<title>3:7&#45;&gt;2</title>
<path fill="none" stroke="black" d="M1532.79,-320.7C1544.94,-320.7 1557.35,-320.7 1569.88,-320.7"/>
<polygon fill="black" stroke="black" points="1569.95,-324.2 1579.95,-320.7 1569.95,-317.2 1569.95,-324.2"/>
</g>
<!-- 4&#45;&gt;3 -->
<g id="edge6" class="edge">
<title>4:9&#45;&gt;3</title>
<path fill="none" stroke="black" d="M977.92,-332.7C1018.32,-332.7 1061.39,-332.7 1102.89,-332.7"/>
<polygon fill="black" stroke="black" points="1103.12,-336.2 1113.12,-332.7 1103.12,-329.2 1103.12,-336.2"/>
</g>
<!-- 6 -->
<g id="node7" class="node">
<title>6</title>
<polygon fill="#f2f2f2" stroke="black" points="1101.35,-93.5 1101.35,-167.9 1544.22,-167.9 1544.22,-93.5 1101.35,-93.5"/>
<text text-anchor="middle" x="1322.79" y="-151.3" font-family="Courier New" font-size="14.00">FixedPoint.uq112x112 &lt;&lt;Struct&gt;&gt;</text>
<polyline fill="none" stroke="black" points="1101.35,-143.1 1544.22,-143.1 "/>
<text text-anchor="middle" x="1134.56" y="-126.5" font-family="Courier New" font-size="14.00">offset</text>
<polyline fill="none" stroke="black" points="1101.35,-118.3 1167.76,-118.3 "/>
<text text-anchor="middle" x="1134.56" y="-101.7" font-family="Courier New" font-size="14.00">0</text>
<polyline fill="none" stroke="black" points="1167.76,-93.5 1167.76,-143.1 "/>
<text text-anchor="middle" x="1355.99" y="-126.5" font-family="Courier New" font-size="14.00">type: variable (bytes)</text>
<polyline fill="none" stroke="black" points="1167.76,-118.3 1544.22,-118.3 "/>
<text text-anchor="middle" x="1238.77" y="-101.7" font-family="Courier New" font-size="14.00">unallocated (4)</text>
<polyline fill="none" stroke="black" points="1309.78,-93.5 1309.78,-118.3 "/>
<text text-anchor="middle" x="1427" y="-101.7" font-family="Courier New" font-size="14.00">uint224: uq112x112._x (28)</text>
</g>
<!-- 7 -->
<g id="node8" class="node">
<title>7</title>
<polygon fill="#f2f2f2" stroke="black" points="1101.35,-0.5 1101.35,-74.9 1544.22,-74.9 1544.22,-0.5 1101.35,-0.5"/>
<text text-anchor="middle" x="1322.79" y="-58.3" font-family="Courier New" font-size="14.00">FixedPoint.uq112x112 &lt;&lt;Struct&gt;&gt;</text>
<polyline fill="none" stroke="black" points="1101.35,-50.1 1544.22,-50.1 "/>
<text text-anchor="middle" x="1134.56" y="-33.5" font-family="Courier New" font-size="14.00">offset</text>
<polyline fill="none" stroke="black" points="1101.35,-25.3 1167.76,-25.3 "/>
<text text-anchor="middle" x="1134.56" y="-8.7" font-family="Courier New" font-size="14.00">0</text>
<polyline fill="none" stroke="black" points="1167.76,-0.5 1167.76,-50.1 "/>
<text text-anchor="middle" x="1355.99" y="-33.5" font-family="Courier New" font-size="14.00">type: variable (bytes)</text>
<polyline fill="none" stroke="black" points="1167.76,-25.3 1544.22,-25.3 "/>
<text text-anchor="middle" x="1238.77" y="-8.7" font-family="Courier New" font-size="14.00">unallocated (4)</text>
<polyline fill="none" stroke="black" points="1309.78,-0.5 1309.78,-25.3 "/>
<text text-anchor="middle" x="1427" y="-8.7" font-family="Courier New" font-size="14.00">uint224: uq112x112._x (28)</text>
</g>
<!-- 8&#45;&gt;6 -->
<g id="edge7" class="edge">
<title>8:17&#45;&gt;6</title>
<path fill="none" stroke="black" d="M1003.92,-96.7C1032.09,-96.7 1061.59,-98.04 1090.79,-100.18"/>
<polygon fill="black" stroke="black" points="1090.86,-103.7 1101.1,-100.97 1091.39,-96.72 1090.86,-103.7"/>
</g>
<!-- 8&#45;&gt;7 -->
<g id="edge8" class="edge">
<title>8:19&#45;&gt;7</title>
<path fill="none" stroke="black" d="M1003.92,-71.7C1032.09,-71.7 1061.59,-70.36 1090.79,-68.22"/>
<polygon fill="black" stroke="black" points="1091.39,-71.68 1101.1,-67.43 1090.86,-64.7 1091.39,-71.68"/>
</g>
</g>
</svg>
